<?xml version="1.0" encoding="iso-8859-1"?>
<!-- Generator: Adobe Illustrator 19.0.0, SVG Export Plug-In . SVG Version: 6.00 Build 0)  -->
<svg version="1.1" id="Layer_1" xmlns="http://www.w3.org/2000/svg" xmlns:xlink="http://www.w3.org/1999/xlink" x="0px" y="0px"
	 viewBox="0 0 512.001 512.001" style="enable-background:new 0 0 512.001 512.001;" xml:space="preserve">
<path style="fill:#CAD1D8;" d="M24,16h464c13.254,0,24,10.745,24,24v432c0,13.254-10.745,24-24,24H24C10.745,496,0,485.255,0,472V40
	C0,26.745,10.745,16,24,16z"/>
<path style="fill:#FFFFFF;" d="M24,80h464c4.418,0,8,3.582,8,8v384c0,4.418-3.582,8-8,8H24c-4.418,0-8-3.582-8-8V88
	C16,83.582,19.582,80,24,80z"/>
<circle style="fill:#9BA7AF;" cx="88.002" cy="47.995" r="7.998"/>
<path style="fill:#E2E5E7;" d="M120,40h368c4.418,0,8,3.582,8,8l0,0c0,4.418-3.582,8-8,8H120c-4.418,0-8-3.582-8-8l0,0
	C112,43.582,115.582,40,120,40z"/>
<g>
	<path style="fill:#CAD1D8;" d="M152.001,376h208c4.418,0,8,3.582,8,8l0,0c0,4.418-3.582,8-8,8h-208c-4.418,0-8.001-3.582-8.001-8
		l0,0C144,379.582,147.582,376,152.001,376z"/>
	<path style="fill:#CAD1D8;" d="M192,408h128c4.418,0,8,3.582,8,8l0,0c0,4.418-3.582,8-8,8H192c-4.418,0-8.001-3.582-8.001-8l0,0
		C184.001,411.582,187.582,408,192,408z"/>
</g>
<g>
	<circle style="fill:#9BA7AF;" cx="24.002" cy="47.995" r="7.998"/>
	<circle style="fill:#9BA7AF;" cx="56.002" cy="47.995" r="7.998"/>
</g>
<circle style="fill:#3689C9;" cx="256" cy="231.998" r="103.998"/>
<g>
	<path style="fill:#1B6FAB;" d="M240,228.16l-11.68,14.08c-4.596,5.48-12.272,7.244-18.8,4.32c0.983,2.224,2.461,4.193,4.32,5.76
		c6.789,5.657,16.877,4.739,22.534-2.049c0.009-0.01,0.017-0.021,0.026-0.031l3.6-4.48C240,245.76,240,228.16,240,228.16z"/>
	<path style="fill:#1B6FAB;" d="M316.32,229.76l-40-48c-1.229-1.388-2.692-2.552-4.32-3.44l36.24,43.44
		c5.525,6.896,4.414,16.965-2.483,22.491c-5.065,4.058-12.08,4.655-17.757,1.509l3.68,4.48c5.656,6.804,15.756,7.736,22.56,2.08
		C321.044,246.665,321.976,236.564,316.32,229.76L316.32,229.76z"/>
	<path style="fill:#1B6FAB;" d="M272,228.16V280c-0.019,8.837-7.197,15.985-16.034,15.966c-2.25-0.005-4.474-0.484-6.527-1.407
		c3.663,8.041,13.152,11.59,21.193,7.927c5.681-2.588,9.338-8.245,9.367-14.487v-50.24L272,228.16z"/>
</g>
<path style="fill:#FFFFFF;" d="M205.76,244.32c6.789,5.657,16.877,4.739,22.534-2.049c0.009-0.01,0.017-0.021,0.026-0.031
	l11.68-14.08V280c0,8.837,7.163,16,16,16c8.837,0,16-7.163,16-16v-51.84l11.68,14.08c5.407,6.989,15.455,8.272,22.446,2.867
	c6.989-5.407,8.272-15.455,2.867-22.446c-0.239-0.31-0.49-0.61-0.751-0.901l-40-48c-5.665-6.782-15.755-7.688-22.537-2.023
	c-0.733,0.612-1.411,1.29-2.023,2.023l-40.001,48c-5.657,6.789-4.739,16.877,2.049,22.534
	C205.74,244.303,205.75,244.311,205.76,244.32z"/>
<path style="fill:#DDDFE1;" d="M230.88,237.44c-5.644-1.487-11.625-1.007-16.959,1.36c-3.989,1.689-8.492,1.689-12.48,0
	c1.462,3.512,4.167,6.36,7.6,8.001c7.04,3.032,15.238,0.966,20-5.04l2.96-4L230.88,237.44z"/>
<path style="fill:#1B6FAB;" d="M344,216.001c-8.837,0-16,7.163-16,16c0,39.764-32.235,72.001-72,72.001c-8.837,0-16,7.163-16,16
	c0,8.837,7.163,16,16,16c57.437,0,104-46.562,104-104.001C360,223.164,352.836,216.001,344,216.001z"/>
<path style="fill:#4C9FD7;" d="M168.001,248.001c8.837,0,16-7.163,16-16c0-39.764,32.235-72.001,72.001-72.001
	c8.837,0,16-7.163,16-16c0-8.837-7.164-16-16.001-16c-57.437,0-104.001,46.562-104.001,104.001
	C152.001,240.836,159.164,248.001,168.001,248.001z"/>
<path style="fill:#DDDFE1;" d="M272,228.16c-4.418,0-8,3.582-8,8.001v51.84c-0.011,2.264-0.501,4.5-1.44,6.56
	c5.734-2.578,9.427-8.273,9.44-14.56L272,228.16L272,228.16z"/>
<g>
</g>
<g>
</g>
<g>
</g>
<g>
</g>
<g>
</g>
<g>
</g>
<g>
</g>
<g>
</g>
<g>
</g>
<g>
</g>
<g>
</g>
<g>
</g>
<g>
</g>
<g>
</g>
<g>
</g>
</svg>
